<?xml version="1.0" encoding="UTF-8" standalone="no"?>
<!-- Created with Inkscape (http://www.inkscape.org/) -->

<svg
   width="534.68079"
   height="522.76312"
   id="svg2"
   sodipodi:version="0.32"
   inkscape:version="1.2.1 (9c6d41e410, 2022-07-14)"
   version="1.0"
   sodipodi:docname="heckert_gnu.svg"
   inkscape:output_extension="org.inkscape.output.svg.inkscape"
   xmlns:inkscape="http://www.inkscape.org/namespaces/inkscape"
   xmlns:sodipodi="http://sodipodi.sourceforge.net/DTD/sodipodi-0.dtd"
   xmlns="http://www.w3.org/2000/svg"
   xmlns:svg="http://www.w3.org/2000/svg"
   xmlns:rdf="http://www.w3.org/1999/02/22-rdf-syntax-ns#"
   xmlns:cc="http://creativecommons.org/ns#"
   xmlns:dc="http://purl.org/dc/elements/1.1/">
  <defs
     id="defs4" />
  <sodipodi:namedview
     id="base"
     pagecolor="#ffffff"
     bordercolor="#666666"
     borderopacity="1.0"
     gridtolerance="10000"
     guidetolerance="10"
     objecttolerance="10"
     inkscape:pageopacity="0.0"
     inkscape:pageshadow="2"
     inkscape:zoom="1.4"
     inkscape:cx="560.35714"
     inkscape:cy="353.57143"
     inkscape:document-units="px"
     inkscape:current-layer="layer1"
     showgrid="false"
     inkscape:window-width="3840"
     inkscape:window-height="2160"
     inkscape:window-x="0"
     inkscape:window-y="0"
     inkscape:showpageshadow="2"
     inkscape:pagecheckerboard="0"
     inkscape:deskcolor="#d1d1d1"
     inkscape:window-maximized="1" />
  <metadata
     id="metadata7">
    <rdf:RDF>
      <cc:Work
         rdf:about="">
        <dc:format>image/svg+xml</dc:format>
        <dc:type
           rdf:resource="http://purl.org/dc/dcmitype/StillImage" />
        <cc:license
           rdf:resource="http://creativecommons.org/licenses/by-sa/4.0/" />
      </cc:Work>
      <cc:License
         rdf:about="http://creativecommons.org/licenses/by-sa/4.0/">
        <cc:permits
           rdf:resource="http://creativecommons.org/ns#Reproduction" />
        <cc:permits
           rdf:resource="http://creativecommons.org/ns#Distribution" />
        <cc:requires
           rdf:resource="http://creativecommons.org/ns#Notice" />
        <cc:requires
           rdf:resource="http://creativecommons.org/ns#Attribution" />
        <cc:permits
           rdf:resource="http://creativecommons.org/ns#DerivativeWorks" />
        <cc:requires
           rdf:resource="http://creativecommons.org/ns#ShareAlike" />
      </cc:License>
    </rdf:RDF>
  </metadata>
  <g
     inkscape:label="Layer 1"
     inkscape:groupmode="layer"
     id="layer1"
     transform="translate(-126.94531,-19.552058)">
    <g
       id="g1643"
       transform="matrix(0.96065999,0,0,0.96065999,-541.67158,11.051932)">
      <g
         id="g1626"
         transform="translate(1095.8893,-56.149268)">
        <g
           id="path321-0">
          <path
             style="color:#000000;fill:#ffffff;fill-rule:evenodd;stroke-width:10;-inkscape-stroke:none"
             d="m -260.23705,75.701778 c -20.90998,-0.35399 -43.53116,2.55442 -66.61914,14.69141 -23.08797,12.138992 -36.41046,23.841372 -49.06445,48.152342 -12.65399,24.31097 -14.33448,43.29211 -12.39648,72.58008 1.93799,29.28797 9.18583,48.51598 27.88281,71.87695 18.69698,23.35998 35.4414,31.87646 64.98437,36.31446 0.29,12.48798 2.22146,15.3011 -6.51953,24.49609 -8.72399,9.17699 2.32272,15.54156 -13.57226,24.68555 -7.278,4.18699 -10.01996,10.94711 -11.12696,18.53711 -1.107,7.59099 5.20384,10.74016 11.04883,6.57617 5.845,-4.165 11.88057,-3.08344 16.60156,-1.52344 2.834,0.936 8.90315,0.19482 11.49414,-4.45117 3.174,-5.689 7.90507,-7.3155 11.53907,-7.5625 -1.124,28.09997 -3.26974,52.50358 7.90625,81.68555 11.17399,29.17797 29.02691,51.95473 66.42187,79.9707 -28.33897,-28.72497 -49.34657,-48.72243 -59.72656,-82.65039 -10.37999,-33.92897 -7.50589,-51.93756 -6.46289,-82.51953 12.49899,-2.208 20.17851,-4.66157 31.8125,-12.47657 l 3.33398,20.25586 c 0.736,7.445 -0.81173,15.32882 0.82227,20.25782 1.634,4.92999 5.15331,0.30563 6.94531,5.26562 1.792,4.96 1.82816,18.24999 3.16016,22.70899 1.332,4.45799 2.18252,1.6385 4.35351,2.4375 2.172,0.799 6.28904,-0.17874 8.58203,2.32226 2.294,2.501 0.30679,8.43316 3.55079,10.91016 3.24399,2.477 8.88737,0.44014 10.60937,2.36914 1.722,1.93 0.60059,3.00287 -0.69141,4.29687 -1.29199,1.294 -3.43348,1.73152 -4.14648,4.22852 -0.713,2.497 -0.59301,6.27466 0.45898,9.72266 1.052,3.44799 2.31419,6.39644 5.36719,8.77343 3.053,2.376 8.96679,1.14452 11.55078,3.35352 2.585,2.209 -0.38089,6.23534 1.91211,8.15234 2.294,1.917 6.9899,0.25152 9.46289,1.35352 2.473,1.102 5.21369,1.77249 4.55469,4.89648 -0.66,3.125 -6.08597,6.96676 -7.66797,9.84375 -1.582,2.876 -2.25814,4.69911 -1.61914,7.03711 0.64,2.339 2.16952,5.0768 5.35352,8.4668 5.63599,5.99999 14.15011,10.58646 20.78711,15.56445 2.17399,1.632 4.70198,3.48327 4.83398,6.07227 0.133,2.58899 -1.16919,3.89348 -3.49219,5.89648 -2.32299,2.003 -7.51416,2.87547 -9.41015,5.48047 -1.895,2.606 -1.72963,5.14532 -1.39063,8.07031 0.339,2.926 2.81569,4.9239 4.42969,7.08789 1.614,2.164 5.19349,5.21468 7.27148,6.26368 l -5.64062,-8.9004 c -1.375,-2.16799 -0.98878,-5.46043 0.44922,-7.64843 1.439,-2.189 5.19437,-1.02696 7.60937,-2.50196 2.415,-1.47399 4.96107,-2.0092 6.53907,-4.4082 1.57699,-2.399 3.59948,-5.1185 2.64648,-9.5625 -0.954,-4.44399 -5.34653,-11.48652 -8.01953,-17.22851 3.041,2.58299 6.53291,4.58786 9.1289,7.75585 2.595,3.167 3.66309,7.64704 6.20508,10.95704 2.543,3.31099 5.9334,5.80598 8.90039,8.70898 -1.336,2.199 -3.47334,4.31966 -4.90234,6.59766 -2.877,4.58699 -6.66222,10.09221 -5.19922,16.1582 1.563,6.47899 5.23084,8.54697 11.79883,13.91797 -2.201,-3.752 -5.31291,-7.87505 -6.00391,-11.24805 -0.69,-3.37299 0.691,-5.13922 2.25,-7.07422 1.559,-1.935 4.05499,-2.66895 6.08399,-4.00195 -0.33,2.501 -2.09024,4.56082 -0.99024,7.50781 1.098,2.946 4.72607,7.08821 7.66407,10.28321 2.93999,3.19499 6.4925,6.31942 9.937501,8.85742 3.444988,2.53799 6.553188,3.84864 9.867178,4.68164 3.312,0.833 6.38508,0.13898 9.58008,0.20898 -3.063,-1.481 -6.84969,-2.28345 -9.17969,-4.43945 -2.32999,-2.156 -2.73647,-5.23266 -4.10547,-7.84766 2.857,1.964 5.34727,4.29458 8.57227,5.89258 3.227,1.598 6.18961,2.63052 10.59961,3.60352 5.95699,1.313 12.32863,1.52098 18.39063,2.20898 -4.762,-2.323 -9.24213,-3.689 -12.20313,-6.375 -2.961,-2.686 -3.44877,-5.82745 -4.13477,-8.43945 7.041,3.64099 12.34331,8.92394 18.15431,10.33594 5.80999,1.41099 9.78542,1.88889 16.23242,1.21289 6.44699,-0.677 11.3142,-2.97824 14.2832,-4.61524 -5.41599,0.973 -11.91816,1.35227 -18.91016,-0.0527 3.832,-2.545 3.78515,-1.23582 11.49414,-7.63282 7.709,-6.39699 12.86333,-13.6827 14.36133,-18.2207 -4.82999,5.225 -11.81268,9.16757 -19.01367,11.22656 2.659,-3.12299 6.72863,-6.29309 7.01563,-10.99609 -4.236,1.788 -8.91826,2.18906 -12.40625,0.91406 -5.82,-2.12599 -13.86493,-11.05455 -14.91993,-16.56054 -0.767,-4.009 2.03176,-4.30162 4.84375,-6.72461 2.81,-2.422 8.45137,-4.76882 11.31836,-7.75782 2.868,-2.98799 4.30068,-5.42992 5.13868,-8.79492 0.83599,-3.36499 0.66162,-6.97799 -0.23438,-10.33398 -0.896,-3.356 -4.05733,-7.52854 -4.98633,-10.39453 -0.929,-2.866 -1.26325,-3.87269 -0.15625,-6.67969 1.105,-2.806 4.3301,-6.25963 6.4961,-9.39063 3.56399,-0.708 6.12136,-1.398 10.69336,-2.125 4.57199,-0.726 11.79501,0.12928 15.5410104,-1.63671 3.745,-1.766 5.31258,-8.65151 6.01757999,-11.6875 1.72700001,-7.451 0.75164,-12.78215 -0.44336,-20.24415 7.10599001,-3.11999 12.94962961,-4.30645 17.89061961,-10.93945 1.984,-2.664 2.10322,-5.8402 2.07422,-8.2832 -0.027,-2.444 -0.96917,-4.00655 -2.82617,-6.18555 -1.859,-2.179 -6.03702,-4.49455 -8.0410096,-6.56055 -2.004,-2.06499 -2.57438,-3.80793 -3.85938,-5.71093 6.9789896,-4.3 13.9725796,-10.47269 18.2675796,-14.67969 4.29499,-4.206 5.68939,-6.08894 7.27539,-10.33594 1.586,-4.24699 2.18575,-9.07769 1.96875,-14.42969 -0.217,-5.35199 -1.66991,-13.35953 -3.25391,-17.26953 -1.584,-3.90999 -3.26565,-4.13808 -5.22265,-5.70507 -1.957,-1.567 -4.16986,-3.23865 -6.50586,-3.68165 -2.334,-0.44399 -4.32774,1.17618 -7.3027396,1.57618 -2.97499,0.4 -7.52755,1.5515 -10.43554001,0.8125 -2.90599999,-0.74 -3.45945999,-3.09363 -5.18945999,-4.64063 -0.428,-2.148 -1.16259,-4.20747 -1.55859,-6.85547 -0.398,-2.64999 -0.0781,-5.71634 -0.82813,-9.02734 -0.74799,-3.311 -2.2480404,-6.88804 -3.3730404,-10.33203 2.0820004,1.177 3.3010604,1.2003 6.9140604,3.52929 8.65899,5.58 16.9275696,13.38185 27.7265596,14.58985 6.988,0.784 10.75742,5.79248 17.06641,6.89648 6.30999,1.105 15.38136,1.07889 21.19336,0.96289 5.81199,-0.116 9.64053,-0.54105 13.26953,-2.49804 7.15699,-3.859 8.48245,-12.4576 5.93945,-14.6836 -2.54499,-2.22599 -3.57976,-1.74636 -5.50976,-1.19336 -4.84,1.388 -7.19574,-3.0015 -8.42774,-6.9375 -0.867,-2.77299 -0.97486,-5.92659 -1.63086,-9.30859 16.75799,-3.209 31.49388,-9.07548 44.255861,-21.23047 12.93999,-12.32299 28.14076,-37.46119 32.71875,-53.82617 5.80899,-20.76698 4.47882,-52.40872 -0.32617,-73.4707 -3.759,-16.49299 -9.43351,-27.83851 -19.8125,-41.0625 -8.24999,-10.50999 -19.51318,-21.65949 -31.201171,-28.271482 -11.63299,-6.583 -28.82976,-12.48385 -42.09375,-13.83985 -16.54798,-1.693 -35.80449,-1.87468 -51.4804696,4.44531 -6.10099,2.459 -12.6792204,7.32583 -17.3242204,10.04883 -5.63899,3.305 -12.18002,9.007972 -19.16601,8.417972 -3.061,-0.259 -6.49999,-1.59119 -8.95899,-3.617192 0.951,7.152002 1.6508,10.811882 7.2168,16.296882 8.74599,8.61899 28.67409,6.11061 39.8300804,5.34961 9.21699,-0.628 16.8122596,-3.97577 26.7812496,-3.75977 8.13599,0.178 21.0433,5.24907 26.52929,8.03906 9.77499,4.972 19.17012,14.63611 24.91211,23.87109 3.528,5.674 6.7855,12.51754 8.6875,19.39454 1.902,6.87699 2.57641,14.88538 2.56641,21.48437 -0.01,6.59799 -1.21277,11.85266 -2.13477,17.84766 -1.627,10.57999 -12.70856,29.65366 -27.43554,25.13867 -13.48799,-4.137 -22.93781,-17.37065 -30.9668,-28.43164 -10.31099,-14.20299 -23.0706396,-32.89914 -38.51563,-46.32813 -8.67399,-7.54199 -23.21124,-14.128 -34.74023,-15.25 -20.05898,-1.95199 -28.8281,1.37205 -45.70508,13.70703 -4.719,3.449 -7.913648,7.9691 -13.056639,10.9961 -10.06199,-5.758 -17.73095,-15.17702 -30.21094,-20.29102 -12.47999,-5.11499 -16.43422,-5.64117 -31.9082,-5.45117 -15.47399,0.19 -29.80514,3.84375 -44.32813,15.67774 -14.52198,11.83398 -57.08098,64.51903 -65.41797,69.95703 -8.33599,5.43699 -10.46138,8.19415 -19.98437,8.03515 -9.52399,-0.159 -26.39572,-14.78374 -27.51172,-34.38672 -1.116,-19.60198 -0.6575,-27.86525 12.77148,-51.24023 13.42899,-23.37497 40.99505,-31.03661 57.83203,-33.84961 16.83699,-2.81299 28.07059,4.74853 46.35157,4.26954 18.27998,-0.48001 38.71236,-2.45133 37.81836,-25.154302 -3.349,2.566 -8.0387,4.37154 -14.92969,4.31055 -6.88999,-0.061 -17.69968,-8.54417 -29.51367,-15.28516 -11.81499,-6.741 -25.74823,-8.27395 -46.65821,-8.62695 z"
             id="path1630" />
          <path
             style="color:#000000;fill:#ffffff;fill-rule:evenodd;-inkscape-stroke:none"
             d="m -260.15234,70.703125 c -21.43443,-0.362868 -45.04386,2.653873 -69.03125,15.263672 -23.55827,12.386258 -38.1577,25.266573 -51.17188,50.269533 -13.06239,25.09559 -14.91114,45.59878 -12.95117,75.21875 1.98269,29.96358 9.82933,50.75809 28.96875,74.67187 18.32448,22.89458 36.29081,32.59693 64.04492,37.39258 0.16385,3.81063 0.32379,6.75641 0.0391,8.45117 -0.385,2.29165 -1.27149,4.11878 -5.33984,8.39844 -5.48452,5.77031 -5.20338,12.27604 -5.45703,15.39453 -0.12684,1.55936 -0.29676,2.39141 -1.06641,3.5586 -0.76964,1.16718 -2.37852,2.80564 -5.91797,4.84179 -8.82386,5.07632 -12.36605,13.81318 -13.58203,22.15039 -0.76353,5.23574 1.25656,10.44578 5.42188,12.7793 4.16532,2.33352 9.37633,1.51086 13.47656,-1.41016 4.18706,-2.98359 7.9616,-2.22534 12.13086,-0.84765 h 0.002 c 2.79946,0.92459 5.68251,0.84482 8.82422,-0.084 3.1413,-0.92868 6.55416,-3.00402 8.60352,-6.67773 v -0.002 c 0.60304,-1.08061 1.2344,-1.91203 1.87695,-2.57422 -1.08643,25.01389 -1.98129,48.59607 8.5332,76.05078 11.4993,30.02743 30.26926,53.84582 68.09375,82.18359 l 6.55664,-7.51367 c -28.39176,-28.77848 -48.51526,-47.95276 -58.5039,-80.60156 -9.68469,-31.65624 -7.54866,-48.75891 -6.41602,-76.96289 8.39314,-1.71388 15.47528,-4.08365 23.24805,-8.48047 l 2.0957,12.72461 c 0.61497,6.40459 -1.37299,13.96206 1.05078,21.27343 0.65057,1.96286 1.95802,3.92366 3.7793,4.96875 1.37483,0.78892 2.48107,0.93171 3.29102,0.99219 0.41631,1.44295 1.01838,5.50043 1.39257,9.71485 0.39617,4.46184 0.54528,8.63331 1.59766,12.15625 0.41617,1.39286 0.761,2.51783 1.82813,3.84765 1.06712,1.32982 3.72132,2.40659 5.18945,2.29883 1.45583,-0.10686 1.77035,-0.13486 1.625,-0.17773 1.87161,0.45835 3.28359,0.43398 4.2207,0.5332 0.87642,0.0928 0.8525,0.14203 0.89649,0.15625 0.0238,0.30793 0.27273,1.15947 0.40625,2.59766 0.21272,2.29133 0.53257,6.25127 4.07617,8.95703 2.03444,1.55343 4.00824,2.00161 5.81445,2.19726 -0.74877,0.92153 -1.43735,2.02211 -1.81641,3.34961 -1.11922,3.91966 -0.83411,8.23321 0.48438,12.55469 1.14558,3.75472 2.97077,8.06188 7.07812,11.25976 v 0.002 c 3.09179,2.40618 6.21632,2.48811 8.41993,2.75586 1.01348,0.12314 1.75599,0.3107 2.28711,0.44336 -0.0636,0.71726 -0.22,1.73499 -0.0371,3.20507 0.185,1.4871 1.01723,3.61835 2.6582,4.99024 v 0.002 c 2.98188,2.49184 6.01982,2.18773 7.98047,2.14453 1.96065,-0.0432 3.34795,0.24856 2.6543,-0.0605 0.45474,0.20263 0.38383,0.16821 0.73437,0.32812 -0.35613,0.48753 -0.69621,0.98387 -1.24609,1.5586 -1.53483,1.60417 -3.44806,3.14696 -4.94922,5.87695 -1.72155,3.13028 -3.11006,6.92367 -2.06055,10.76367 v 0.002 c 0.91308,3.33701 2.97656,6.78356 6.5332,10.57032 6.48546,6.90431 15.25545,11.50996 21.42969,16.14062 1.10522,0.82968 2.0517,1.57641 2.52149,2.08203 0.46978,0.50562 0.33387,0.51214 0.32031,0.2461 v 0.002 c 0.0214,0.41654 0.0993,3.4e-4 0.006,0.14062 -0.0934,0.14029 -0.66466,0.76022 -1.76953,1.71289 -0.0384,0.0331 -1.63188,0.8604 -3.59571,1.71485 -1.96382,0.85445 -4.52244,1.76618 -6.59179,4.60937 h -0.002 v 0.002 c -2.88498,3.96741 -2.66819,8.51693 -2.3125,11.58593 0.62947,5.43313 4.35848,8.12071 5.38868,9.50196 2.38573,3.19872 5.52811,5.9728 9.02539,7.73828 l 16.17773,8.16601 -15.3418,-24.20703 -0.002,-0.002 c 0.0536,0.0846 0.16612,-0.82487 0.2793,-1.52734 1.18795,-0.13609 3.48766,-0.045 6.16211,-1.67774 1.54049,-0.94024 5.36397,-1.75098 8.11132,-5.92773 h 0.002 c 0.85348,-1.29837 2.23756,-3.60041 3.03515,-6.48438 1.66735,1.92437 3.30748,3.60257 4.93946,5.04297 -0.87466,1.08456 -1.49097,1.76919 -2.42969,3.26563 -2.78491,4.44017 -7.90975,11.34111 -5.82422,19.98828 0.96216,3.98836 2.90064,7.20912 5.28906,9.67773 2.38843,2.46861 5.03073,4.34167 8.20508,6.9375 l 7.35156,-6.29297 c 0.37642,0.40398 0.77908,0.88451 1.13672,1.27344 h 0.002 v 0.002 c 3.19913,3.47662 6.94927,6.76941 10.65039,9.4961 3.93884,2.90182 7.814127,4.5507 11.613278,5.50586 4.6586,1.17168 8.290149,0.30676 10.691406,0.35937 l 0.960937,-3.99609 c 1.277794,0.37187 2.486708,0.76348 3.957032,1.08789 h 0.002 c 6.580474,1.45042 13.118237,1.63846 18.902343,2.29492 l 1.330079,-4.56641 c 6.004522,1.44875 10.954719,2.02295 17.804687,1.30469 7.357447,-0.77261 12.918495,-3.41303 16.175781,-5.20898 l -3.298828,-9.29883 c -0.744889,0.13382 -1.634122,0.13133 -2.417969,0.23633 7.75104,-6.64332 13.010939,-13.64053 14.996094,-19.6543 l -8.419922,-4.96094 c -0.970321,1.04968 -2.083319,2.0457 -3.279297,2.99219 l 0.433594,-7.10937 -7.425781,3.13476 c -3.266653,1.37884 -6.92887,1.48777 -8.744141,0.82422 h -0.002 c -1.488509,-0.54374 -4.754801,-2.89677 -7.248047,-5.66406 -2.385098,-2.64726 -4.052578,-5.79278 -4.357422,-6.89063 0.456803,-0.28941 1.430634,-0.82651 3.078125,-2.24609 v -0.002 c 0.756557,-0.6521 2.747206,-1.85555 4.933594,-3.15821 2.186388,-1.30265 4.61346,-2.72071 6.728516,-4.92578 3.233723,-3.36933 5.359078,-6.93606 6.382812,-11.04687 v -0.002 c 1.077136,-4.33564 0.829136,-8.7662 -0.255859,-12.83008 -0.692818,-2.59497 -1.902682,-4.66365 -2.947266,-6.53125 -1.044583,-1.86759 -1.942292,-3.58772 -2.113281,-4.11523 -0.465787,-1.43697 -0.602008,-2.05383 -0.607422,-2.13867 -0.0054,-0.0848 -0.06994,-0.11011 0.345703,-1.16406 v -0.002 l 0.002,-0.002 c 0.322,-0.81768 2.689091,-3.86006 4.767579,-6.70703 2.725842,-0.58042 4.993289,-1.1351 8.552734,-1.70117 1.582859,-0.25135 4.467088,-0.26806 7.46875,-0.3711 3.001662,-0.10304 6.144121,-0.13732 9.4199218,-1.68164 h 0.00195 c 3.89647573,-1.83743 5.4894317,-5.17162 6.6445312,-8 1.1550996,-2.82837 1.7605671,-5.57798 2.109375,-7.08008 l 0.00195,-0.002 c 1.58649,-6.84478 0.9877353,-12.4236 0.1152344,-18.26367 5.6652686,-2.25639 11.5599936,-4.4682 16.4707036,-11.06055 v -0.002 c 3.062677,-4.11239 3.093981,-8.66672 3.0625,-11.32422 v -0.002 c -0.04159,-3.7044 -1.939041,-6.92985 -4.019532,-9.3711 v -0.002 h -0.002 c -1.562308,-1.83124 -3.271158,-2.99062 -4.830078,-4.12305 -1.558919,-1.13242 -2.982886,-2.21722 -3.425781,-2.67382 v -0.002 c -0.266398,-0.2745 -0.398932,-0.55824 -0.599609,-0.82422 5.902533,-4.16932 11.287236,-8.95537 14.917968,-12.51172 4.441447,-4.34942 6.70837,-7.46516 8.460938,-12.1582 1.876188,-5.02405 2.518292,-10.53456 2.28125,-16.38086 -0.245421,-6.05294 -1.540701,-13.81964 -3.617188,-18.94531 -1.010497,-2.49434 -2.421662,-4.42275 -3.845703,-5.64648 -1.424041,-1.22374 -2.359317,-1.66326 -2.884765,-2.08399 -2.037863,-1.63175 -4.668059,-3.92672 -8.697266,-4.69141 h -0.002 c -2.519662,-0.47869 -4.617983,0.19183 -5.96875,0.65625 -1.351153,0.46456 -2.1815374,0.7761 -2.9316409,0.87696 -3.5633203,0.4791 -8.0400614,1.04868 -8.53906255,0.92187 -0.29064817,-0.0727 -0.0186097,0.1236 -0.40234375,-0.34375 -0.20057451,-0.24428 -0.94457528,-1.06422 -1.3964844,-1.65234 -0.4579414,-1.93763 -0.9769288,-3.65801 -1.2363281,-5.39258 v -0.002 -0.002 c -0.2232127,-1.4862 -0.1317419,-4.4363 -0.7167969,-7.96289 7.0798512,5.08419 14.8424006,11.2235 25.6542966,12.4336 2.420648,0.27158 4.334896,1.25541 6.865235,2.70117 2.530339,1.44576 5.643955,3.4082 9.896484,4.15234 7.125174,1.24776 16.255445,1.15489 22.15625,1.03711 6.011818,-0.11999 10.887084,-0.58495 15.542969,-3.0957 4.8305,-2.60457 7.740582,-6.81229 9.005859,-10.86719 0.632639,-2.02744 0.891788,-4.03733 0.685547,-6.03906 -0.20624,-2.00173 -0.833896,-4.19235 -2.832031,-5.94141 h -0.002 v -0.002 c -1.659209,-1.45124 -3.559326,-2.6085 -5.734375,-2.8457 -2.175049,-0.23721 -3.620812,0.37313 -4.445313,0.60937 v 0.002 c -0.870815,0.24973 -0.142011,0.33055 -0.566406,-0.11524 -0.424395,-0.44578 -1.208042,-1.90311 -1.710937,-3.50976 -0.269157,-0.86087 -0.502765,-2.72957 -0.69336,-4.06836 15.449149,-3.53963 29.695269,-9.64351 41.994139,-21.35743 13.98301,-13.31627 29.09225,-38.24862 34.08594,-56.09961 6.21726,-22.22652 4.73638,-54.00409 -0.26563,-75.92968 -3.89086,-17.07156 -10.0658,-29.41679 -20.75585,-43.03711 C 117.08636,108.21371 105.55518,96.694466 92.96875,89.574219 80.612198,82.581762 63.210853,76.574068 48.921875,75.113281 32.019244,73.383997 12.086298,73.031149 -4.9375,79.894531 c -7.066188,2.848383 -13.803342,7.92318 -17.982422,10.373047 -6.348548,3.720871 -12.183892,8.088645 -16.216797,7.748047 -1.939224,-0.164083 -4.677706,-1.236984 -6.201172,-2.492188 l -9.810546,-8.083984 1.675781,12.601567 c 0.963865,7.24875 2.455284,13.08079 8.664062,19.19921 5.897993,5.81235 14.285619,7.24476 22.283203,7.625 7.997585,0.38025 15.9889597,-0.48073 21.3964848,-0.8496 10.2334616,-0.69726 17.5366452,-3.93862 26.3320312,-3.74805 6.175458,0.13511 19.527613,5.03286 24.371094,7.49609 8.595307,4.37196 17.65706,13.56831 22.933593,22.05469 3.304797,5.31503 6.375089,11.80316 8.113282,18.08789 1.717097,6.20844 2.396193,13.89039 2.386718,20.14258 -0.0091,5.99436 -1.123542,10.88885 -2.078125,17.0957 -0.622904,4.0506 -3.55727,11.02692 -7.632812,15.70508 -4.075542,4.67816 -8.253526,6.99019 -13.394531,5.41406 C 48.646295,224.81125 39.562725,212.75977 31.515625,201.67383 21.278075,187.572 8.3844291,168.55179 -7.765625,154.50977 c -9.673776,-8.4113 -24.532029,-15.18767 -37.535156,-16.45313 -20.743398,-2.01859 -31.943007,2.07911 -49.140625,14.64844 -4.358403,3.18545 -7.194894,6.49101 -10.177734,8.93164 -8.00195,-5.37562 -15.76098,-13.70306 -28.24414,-18.81836 v 0.002 c -12.71157,-5.2099 -18.26749,-6.01574 -33.86524,-5.82422 -16.22297,0.1992 -32.04284,4.26767 -47.42382,16.80078 h -0.002 c -8.22354,6.70138 -22.11838,22.61261 -35.62109,37.94922 -6.75136,7.66831 -13.29723,15.12128 -18.62891,20.94727 -5.33167,5.82599 -10.11988,10.34341 -10.74023,10.74805 -4.32905,2.82354 -6.91977,4.79132 -9.00781,5.81054 -2.08805,1.01923 -3.88917,1.48541 -8.16211,1.41407 -2.25305,-0.0376 -8.38978,-2.85394 -13.28516,-8.25977 -4.89537,-5.40583 -8.83762,-12.96769 -9.31836,-21.41211 -1.10705,-19.44476 -1.08467,-25.4886 12.11524,-48.46484 12.19178,-21.22145 38.06391,-28.69416 54.32031,-31.41016 7.522,-1.25671 13.71739,-0.22955 20.80469,1.22656 7.0873,1.45611 14.99951,3.36762 24.85546,3.10938 9.27067,-0.24344 19.46878,-0.69987 28.07813,-4.70899 8.60935,-4.00911 15.11162,-12.78501 14.60547,-25.638668 l -0.38086,-9.640625 -7.65625,5.867187 c -2.45904,1.884115 -5.84808,3.33238 -11.8457,3.279297 -1.41633,-0.01254 -5.57525,-1.590003 -10.41602,-4.443359 -4.84077,-2.853356 -10.54306,-6.690988 -16.66406,-10.183594 -11.91749,-6.79948 -25.69602,-8.564457 -44.13477,-9.097656 v -0.103516 z m -0.16993,9.998047 c 20.70318,0.349509 33.63688,1.90651 44.26563,7.970703 5.69298,3.248378 11.3029,7.022608 16.54297,10.111328 5.24006,3.088717 9.93064,5.781617 15.4043,5.830077 3.33957,0.0296 6.282,-0.41781 8.96484,-1.11914 -1.3238,4.03139 -3.92404,6.37312 -7.82031,8.1875 -5.95288,2.77208 -15.11049,3.54071 -24.11914,3.77734 -8.42501,0.22075 -15.2711,-1.40655 -22.58008,-2.9082 -7.30898,-1.50165 -15.14987,-2.85119 -24.46485,-1.29492 -17.41752,2.90999 -46.67758,10.76257 -61.34375,36.29101 -13.65802,23.77367 -14.55268,34.25647 -13.42773,54.01563 0.63526,11.15854 5.6882,20.70962 11.88867,27.55664 6.20048,6.84702 13.26032,11.42354 20.53125,11.54492 5.25004,0.0877 9.2735,-0.74693 12.71289,-2.42578 3.43939,-1.67885 6.07901,-3.80648 10.08594,-6.41992 3.54814,-2.31436 7.20758,-6.42135 12.6543,-12.37305 5.44671,-5.95169 12.01206,-13.42985 18.75781,-21.09179 13.4915,-15.32388 28.13517,-31.6721 34.43359,-36.80469 13.66497,-11.13484 26.50549,-14.37389 41.23047,-14.55469 15.35019,-0.18848 17.70279,0.0581 29.95117,5.07813 11.15179,4.56973 18.47148,13.62239 29.62305,20.0039 l 2.51953,1.44141 2.5,-1.47071 c 6.238133,-3.67156 9.563993,-8.41421 13.470704,-11.26953 16.556308,-12.1006 22.896963,-14.65296 42.271485,-12.76757 10.054829,0.97853 24.269173,7.3742 31.943359,14.04687 14.73989596,12.81593 27.365591,31.18807 37.75,45.49219 8.010864,11.03602 17.826971,25.45382 33.546875,30.27539 9.58596,2.93886 18.313465,-2.02939 23.867188,-8.4043 5.553723,-6.37491 8.972468,-14.22648 9.976562,-20.75586 0.889416,-5.78313 2.182445,-11.398 2.193359,-18.59961 0.01053,-6.94577 -0.661148,-15.27869 -2.748046,-22.82422 C 88.193962,159.77098 84.751197,152.57202 81,146.53906 74.792565,136.5555 65.062075,126.42359 54.107422,120.85156 v -0.002 c -6.128488,-3.11674 -18.589041,-8.35919 -28.685547,-8.58008 h -0.002 c -11.142574,-0.24143 -19.0280158,3.21079 -27.2285157,3.76953 h -0.00195 c -5.7484542,0.39213 -13.2982893,1.16795 -20.2402343,0.83789 -6.941946,-0.33005 -12.890293,-1.95313 -15.738281,-4.75976 -1.826738,-1.80016 -2.835123,-3.13663 -3.589844,-4.4668 0.473692,0.0722 0.924546,0.28982 1.40039,0.33008 9.939062,0.8394 17.185814,-6.19682 22.115235,-9.085939 5.110591,-2.995939 11.5308264,-7.654875 16.6660156,-9.724609 14.3281294,-5.776586 32.9082664,-5.766088 49.1015624,-4.109375 12.238975,1.251211 29.23122,7.043267 40.140625,13.216797 v 0.002 c 10.789527,6.103726 21.784772,16.883526 29.730472,27.005866 10.0679,12.82763 15.24397,23.17154 18.87109,39.08593 v 0.002 c 4.60796,20.19833 5.78548,51.70432 0.38477,71.01172 -4.16228,14.87894 -19.45462,40.2211 -31.35156,51.55078 v 0.002 c -11.951888,11.38342 -25.563853,16.84033 -41.748053,19.93945 l -4.921875,0.94336 0.953125,4.91992 c 0.564868,2.91218 0.613628,6.1569 1.767578,9.84766 v 0.002 h 0.002 c 0.729104,2.32935 1.738293,5.03396 4.009765,7.41993 2.271473,2.38596 6.597227,3.96834 10.566407,2.83007 0.494917,-0.1418 0.160368,-0.0973 0.271484,-0.125 0.0096,0.40707 -0.0072,0.99268 -0.244141,1.75196 -0.550948,1.76565 -1.880548,3.78854 -4.207031,5.04297 -2.602108,1.40322 -5.383943,1.78837 -10.996094,1.90039 -5.723183,0.11422 -14.737628,0.0736 -20.232421,-0.88868 -2.056455,-0.35985 -3.981543,-1.45389 -6.660157,-2.98437 -2.678613,-1.53048 -6.143591,-3.44461 -10.710937,-3.95703 h -0.002 C 14.812589,332.60523 7.1785104,325.70189 -2.0449219,319.75781 l -0.00195,-0.002 c -4.0285377,-2.59643 -5.783733,-2.89851 -7.1621094,-3.67774 l -11.2128907,-6.33984 4,12.24414 c 1.215044,3.71965 2.648064,7.21637 3.25,9.88086 v 0.002 0.002 c 0.535396,2.3635 0.21918,5.06665 0.759766,8.66601 0.473773,3.16487 1.266352,5.41733 1.599609,7.08985 l 0.326172,1.63672 1.2441406,1.11328 c 0.123278,0.11023 0.5730492,0.78957 1.6230469,2.06836 1.0499977,1.27878 3.0581159,3.02536 5.6660156,3.68945 h 0.00195 c 5.316973,1.35119 9.9473306,-0.38223 12.3339849,-0.70313 2.224893,-0.29914 3.878597,-0.99555 4.851562,-1.33007 0.972965,-0.33453 1.036233,-0.25357 0.849609,-0.28907 h 0.002 0.002 c 0.641683,0.12169 2.436696,1.17185 4.3125,2.67383 1.431549,1.14626 2.315155,1.60373 2.617187,1.86328 0.302032,0.25955 0.522202,0.40076 1.095703,1.81641 1.091511,2.69432 2.704,10.94273 2.892578,15.59375 0.196958,4.85769 -0.362394,9.0086 -1.658203,12.47851 -1.419429,3.80096 -1.941318,4.44915 -6.089844,8.51172 -4.103263,4.0192 -10.9609551,10.03455 -17.3906245,13.9961 l -4.4394531,2.73437 2.91796873,4.32031 c 0.87664367,1.29826 1.76297967,3.66076 4.41601557,6.39454 1.5607546,1.60874 3.2271967,2.71445 4.7226563,3.80078 1.495835,1.0866 2.804873,2.17567 3.101563,2.52343 1.63016,1.91273 1.6178,1.81405 1.630859,2.9961 v 0.002 0.002 c 0.02646,2.22893 -0.181783,4.02229 -1.085938,5.23633 h 0.002 c -3.9833742,5.34746 -8.2899283,6.0096 -15.8925786,9.34766 l -3.5371094,1.55469 0.6113281,3.81445 c 1.2033739,7.51429 2.0248084,11.78769 0.5097657,18.32422 -0.3561885,1.53383 -0.8860045,3.74431 -1.6269532,5.55859 -0.7411885,1.81488 -1.8038232,2.80776 -1.6523437,2.73633 -0.4701959,0.22167 -2.8106599,0.64206 -5.4999999,0.73438 -2.68934,0.0923 -5.704233,0.0117 -8.693359,0.48632 -4.770984,0.75864 -7.479419,1.48211 -10.882813,2.15821 l -1.986328,0.39453 -1.152344,1.66601 c -1.823574,2.63602 -5.22734,5.81164 -7.035156,10.40235 -0.690962,1.75255 -1.14061,3.6326 -1.023438,5.46875 0.117211,1.83675 0.611007,3.15691 1.074219,4.58593 0.75801,2.33849 1.906108,4.13794 2.898438,5.91211 0.992329,1.77417 1.810491,3.46945 2.013672,4.23047 0.707002,2.6481 0.807733,5.44356 0.21289,7.83789 -0.651973,2.61682 -1.391847,3.93371 -3.892578,6.53907 h -0.002 c -0.751931,0.78393 -2.577319,2.03431 -4.630859,3.25781 -2.053541,1.2235 -4.29031,2.40392 -6.34375,4.17383 -0.859921,0.74059 -2.076844,1.21663 -3.88086,2.87304 -1.804602,1.65696 -3.208014,5.44913 -2.609375,8.57813 v 0.002 c 0.875539,4.56939 3.621177,8.34816 6.869141,11.95313 3.247963,3.60497 6.914608,6.78103 11.246094,8.36328 1.408707,0.51494 2.859953,0.80266 4.328125,0.95508 -0.379551,0.43217 -0.623819,0.71322 -1.029297,1.18945 l -10.72461,12.5957 12.357422,-3.5332 c -0.799652,0.55813 -2.314486,1.7934 -2.791015,2.05664 -1.096907,0.60595 -2.405259,1.09808 -4.642579,2.58398 l -4.910156,3.26172 c -0.922625,-0.18804 -1.673555,-0.23905 -2.748047,-0.5 -3.708545,-0.90113 -9.153004,-5.84295 -17.037109,-9.91992 l -9.990234,-5.16406 2.857421,10.87695 c 0.345491,1.31549 0.871681,3.56554 2.03711,5.95899 -2.971708,-0.75166 -5.240245,-1.52323 -7.634766,-2.70899 -2.40957,-1.19395 -4.698041,-3.28956 -7.958984,-5.53125 l -7.261719,6.43945 c 0.0076,0.0146 0.01976,0.0572 0.02734,0.0723 -2.813036,-2.1782 -5.673357,-4.69087 -8.017577,-7.23828 -2.86876,-3.1197 -6.2853,-7.63878 -6.66016,-8.64453 v -0.002 c -0.11098,-0.29734 -0.12519,-0.077 0.0801,-0.79101 0.20527,-0.71404 0.89106,-2.0974 1.1836,-4.31445 l 1.42773,-10.83204 -9.13086,6 c -0.64791,0.42567 -1.97004,0.91678 -3.48437,1.82618 0.54457,-0.92517 0.92147,-1.76375 1.53515,-2.74219 0.97867,-1.56011 3.11542,-3.65592 4.93946,-6.6582 l 2.0625,-3.39454 -2.8379,-2.77734 c -3.30434,-3.23308 -6.45722,-5.60899 -8.43164,-8.17969 -1.62663,-2.11809 -2.66891,-6.64527 -6.30273,-11.08007 -3.33373,-4.06828 -7.18521,-6.21164 -9.75977,-8.39844 l -7.76953,5.92187 c 1.0073,2.16382 2.16311,4.40287 3.28321,6.61133 -0.52516,-0.41317 -1.13635,-1.01309 -1.57422,-1.3418 h -0.002 v -0.002 c -7.09968,-5.32502 -15.35647,-9.89111 -20.14257,-14.98633 -2.81135,-2.99324 -3.80886,-5.02228 -4.17578,-6.36328 -0.22825,-0.83511 -0.26417,-0.6873 1.17773,-3.30859 0.0808,-0.147 1.6715,-1.96405 3.41016,-3.78125 1.73865,-1.8172 3.95072,-3.57179 4.76757,-7.43946 h 0.002 c 0.63335,-3.00241 -1.03815,-6.74611 -2.96289,-8.21484 -1.92474,-1.46873 -3.49562,-1.85631 -4.44922,-2.28125 -3.16665,-1.4111 -5.36627,-0.83752 -6.94531,-0.80273 -0.22065,0.005 -0.24903,-0.022 -0.42579,-0.0312 0.0689,-0.77609 0.18066,-1.67804 -0.043,-3.00196 -0.26176,-1.5496 -1.17251,-3.55792 -2.74805,-4.90429 -3.07285,-2.62691 -6.08357,-2.51263 -8.2461,-2.77539 -2.16252,-0.26276 -3.5212,-0.75285 -3.48242,-0.72266 -1.99864,-1.55609 -2.69783,-3.14586 -3.65625,-6.28711 -0.77378,-2.53614 -0.73384,-5.68332 -0.43945,-6.80469 0.0233,-0.0137 -0.008,0.0229 0.0332,-0.008 0.33778,-0.25065 1.42676,-0.72142 2.84961,-2.14648 0.62312,-0.62409 1.87368,-1.46786 2.67578,-3.84375 0.8021,-2.3759 -0.26464,-5.60372 -1.79101,-7.31446 l -0.002,-0.002 c -1.62514,-1.8205 -3.58264,-2.25638 -4.9414,-2.45313 -1.35876,-0.19674 -2.4571,-0.17367 -3.41992,-0.19335 -1.92565,-0.0394 -2.9583,-0.37665 -2.94336,-0.36524 0.2996,0.22876 -0.009,-0.0163 -0.1875,-1.93555 -0.17818,-1.91923 0.25136,-5.14912 -2.71289,-8.38086 -2.37303,-2.58745 -5.47103,-3.17838 -7.49414,-3.39257 -2.02213,-0.2141 -3.53694,-0.42363 -3.04493,-0.24219 h -0.002 c -0.48725,-0.17918 -0.95033,-0.22627 -1.42187,-0.30664 -0.29483,-1.53309 -0.72584,-5.01316 -1.08399,-9.04688 -0.40291,-4.53789 -0.65397,-8.98867 -2.03125,-12.80078 -0.71008,-1.96541 -2.0611,-3.87008 -3.86523,-4.88281 -1.2706,-0.71324 -2.30493,-0.88068 -3.11524,-0.95703 -0.57855,-2.99871 0.27267,-10.52233 -0.51367,-18.47656 l -0.0156,-0.16016 -4.62305,-28.0918 -6.45899,4.33789 c -11.19065,7.5172 -17.67491,9.54448 -29.89453,11.70313 l -3.98828,0.70508 -0.0859,2.5039 -3.5332,0.24024 c -4.82271,0.32779 -11.55998,2.93421 -15.5664,10.11523 -0.54172,0.97137 -1.45793,1.59166 -2.70704,1.96094 -1.2491,0.36928 -2.81897,0.18914 -2.85351,0.17773 l 0.002,0.002 c -5.27271,-1.74231 -13.56934,-3.14913 -21.07226,2.19726 -1.74475,1.24297 -2.61057,0.92789 -2.78516,0.83008 -0.1746,-0.0978 -0.75753,-0.25608 -0.41406,-2.61133 0.99801,-6.84277 2.93975,-11.62812 8.67187,-14.92578 4.40804,-2.53584 7.37907,-5.12116 9.28125,-8.00586 1.90218,-2.8847 2.49669,-5.93005 2.68555,-8.25195 0.37772,-4.6438 -0.50188,-5.91006 2.73633,-9.31641 4.67263,-4.91532 7.19111,-9.09325 7.95312,-13.6289 0.76201,-4.53565 0.0806,-8.43261 -0.0586,-14.42774 l -0.0977,-4.20312 -4.1582,-0.625 c -28.88813,-4.33963 -43.66684,-11.80833 -61.82422,-34.49414 -18.2545,-22.80812 -24.90359,-40.47169 -26.79687,-69.08399 -1.91603,-28.95591 -0.40377,-46.4151 11.84179,-69.9414 12.29378,-23.61894 24.3394,-34.14346 46.95703,-46.035161 22.18852,-11.664157 43.82154,-14.462298 64.20703,-14.117187 z m 47.79688,360.009768 c -2.5e-4,-2.8e-4 0.004,2.8e-4 0.004,0 v 0.002 c -0.002,-0.002 -0.002,1.1e-4 -0.004,-0.002 z"
             id="path1632" />
        </g>
      </g>
      <g
         id="g433"
         transform="translate(899.71854,-7.7029302)"
         style="stroke:#000000;stroke-width:1;stroke-dasharray:none;stroke-opacity:1">
        <path
           id="path321"
           style="display:inline;fill:#ffffff;fill-rule:evenodd;stroke:#000000;stroke-width:1;stroke-dasharray:none;stroke-opacity:1"
           d="m -64.022568,27.279885 c -20.90998,-0.353999 -43.531162,2.554419 -66.619142,14.691407 -23.08797,12.138987 -36.41046,23.841368 -49.06445,48.152343 -12.65399,24.310965 -14.33448,43.292105 -12.39648,72.580075 1.93799,29.28797 9.18583,48.51598 27.88281,71.87695 18.69698,23.35998 35.4414,31.87646 64.984372,36.31446 0.29,12.48798 2.22146,15.3011 -6.519532,24.49609 -8.72399,9.17699 2.32272,15.54156 -13.57226,24.68555 -7.278,4.18699 -10.01996,10.94711 -11.12696,18.53711 -1.107,7.59099 5.20384,10.74016 11.04883,6.57617 5.845,-4.165 11.88057,-3.08344 16.60156,-1.52344 2.834002,0.936 8.903152,0.19482 11.494142,-4.45117 3.174,-5.689 7.90507,-7.3155 11.53907,-7.5625 -1.124,28.09997 -3.26974,52.50358 7.90625,81.68555 11.17399,29.17797 29.02691,51.95473 66.4218704,79.9707 -28.3389704,-28.72497 -49.3465704,-48.72243 -59.7265604,-82.65039 -10.37999,-33.92897 -7.50589,-51.93756 -6.46289,-82.51953 12.49899,-2.208 20.17851,-4.66157 31.8125,-12.47657 l 3.33398,20.25586 c 0.736,7.445 -0.81173,15.32882 0.82227,20.25782 1.634,4.92999 5.15331,0.30563 6.94531,5.26562 1.792,4.96 1.82816,18.24999 3.16016,22.70899 1.332,4.45799 2.18252,1.6385 4.35351,2.4375 2.172,0.799 6.28904,-0.17874 8.58203,2.32226 2.294,2.501 0.30679,8.43316 3.5507904,10.91016 3.24399,2.477 8.8873699,0.44014 10.60937,2.36914 1.722,1.93 0.60059,3.00287 -0.6914101,4.29687 -1.29199,1.294 -3.4334799,1.73152 -4.1464799,4.22852 -0.713,2.497 -0.59301,6.27466 0.45898,9.72266 1.052,3.44799 2.3141899,6.39644 5.36719,8.77343 3.053,2.376 8.9667896,1.14452 11.5507796,3.35352 2.585,2.209 -0.38089,6.23534 1.91211,8.15234 2.294,1.917 6.9899,0.25152 9.46289,1.35352 2.473,1.102 5.21369,1.77249 4.55469,4.89648 -0.66,3.125 -6.08597,6.96676 -7.66797,9.84375 -1.582,2.876 -2.25814,4.69911 -1.61914,7.03711 0.64,2.339 2.16952,5.0768 5.35352,8.4668 5.63599,5.99999 14.15011,10.58646 20.78711,15.56445 2.17399,1.632 4.70198,3.48327 4.83398,6.07227 0.133,2.58899 -1.16919,3.89348 -3.49219,5.89648 -2.32299,2.003 -7.51416,2.87547 -9.41015,5.48047 -1.895,2.606 -1.72963,5.14532 -1.39063,8.07031 0.339,2.926 2.81569,4.9239 4.42969,7.08789 1.614,2.164 5.19349,5.21468 7.27148,6.26368 l -5.64062,-8.9004 c -1.375,-2.16799 -0.98878,-5.46043 0.44922,-7.64843 1.439,-2.189 5.19437,-1.02696 7.60937,-2.50196 2.415,-1.47399 4.96107,-2.0092 6.53907,-4.4082 1.57699,-2.399 3.59948,-5.1185 2.64648,-9.5625 -0.954,-4.44399 -5.34653,-11.48652 -8.01953,-17.22851 3.041,2.58299 6.53291,4.58786 9.1289,7.75585 2.595,3.167 3.66309,7.64704 6.20508,10.95704 2.543,3.31099 5.9334,5.80598 8.90039,8.70898 -1.336,2.199 -3.47334,4.31966 -4.90234,6.59766 -2.877,4.58699 -6.66222,10.09221 -5.19922,16.1582 1.563,6.47899 5.23084,8.54697 11.79883,13.91797 -2.201,-3.752 -5.31291,-7.87505 -6.00391,-11.24805 -0.69,-3.37299 0.691,-5.13922 2.25,-7.07422 1.559,-1.935 4.05499,-2.66895 6.08399,-4.00195 -0.33,2.501 -2.09024,4.56082 -0.99024,7.50781 1.098,2.946 4.72607,7.08821 7.66407,10.28321 2.93999,3.19499 6.4925,6.31942 9.9375,8.85742 3.444988,2.53799 6.553188,3.84864 9.867178,4.68164 3.312,0.833 6.38508,0.13898 9.58008,0.20898 -3.063,-1.481 -6.84969,-2.28345 -9.17969,-4.43945 -2.32999,-2.156 -2.73647,-5.23266 -4.10547,-7.84766 2.857,1.964 5.34727,4.29458 8.57227,5.89258 3.227,1.598 6.18961,2.63052 10.59961,3.60352 5.95699,1.313 12.32863,1.52098 18.39063,2.20898 -4.762,-2.323 -9.24213,-3.689 -12.20313,-6.375 -2.961,-2.686 -3.44877,-5.82745 -4.13477,-8.43945 7.041,3.64099 12.34331,8.92394 18.15431,10.33594 5.80999,1.41099 9.78542,1.88889 16.23242,1.21289 6.44699,-0.677 11.3142,-2.97824 14.2832,-4.61524 -5.41599,0.973 -11.91816,1.35227 -18.91016,-0.0527 3.832,-2.545 3.78515,-1.23582 11.49414,-7.63282 7.709,-6.39699 12.86333,-13.6827 14.36133,-18.2207 -4.82999,5.225 -11.81268,9.16757 -19.01367,11.22656 2.659,-3.12299 6.72863,-6.29309 7.01563,-10.99609 -4.236,1.788 -8.91826,2.18906 -12.40625,0.91406 -5.82,-2.12599 -13.86493,-11.05455 -14.91993,-16.56054 -0.767,-4.009 2.03176,-4.30162 4.84375,-6.72461 2.81,-2.422 8.45137,-4.76882 11.31836,-7.75782 2.868,-2.98799 4.30068,-5.42992 5.13868,-8.79492 0.83599,-3.36499 0.66162,-6.97799 -0.23438,-10.33398 -0.896,-3.356 -4.05733,-7.52854 -4.98633,-10.39453 -0.929,-2.866 -1.26325,-3.87269 -0.15625,-6.67969 1.105,-2.806 4.3301,-6.25963 6.4961,-9.39063 3.56399,-0.708 6.12136,-1.398 10.69336,-2.125 4.57199,-0.726 11.79501,0.12928 15.54101,-1.63671 3.745,-1.766 5.31258,-8.65151 6.01758,-11.6875 1.727,-7.451 0.75164,-12.78215 -0.44336,-20.24415 7.10599,-3.11999 12.94963,-4.30645 17.89062,-10.93945 1.984,-2.664 2.10322,-5.8402 2.07422,-8.2832 -0.027,-2.444 -0.96917,-4.00655 -2.82617,-6.18555 -1.859,-2.179 -6.03702,-4.49455 -8.04101,-6.56055 -2.004,-2.06499 -2.57438,-3.80793 -3.85938,-5.71093 6.97899,-4.3 13.97258,-10.47269 18.26758,-14.67969 4.29499,-4.206 5.68939,-6.08894 7.27539,-10.33594 1.586,-4.24699 2.18575,-9.07769 1.96875,-14.42969 -0.217,-5.35199 -1.66991,-13.35953 -3.25391,-17.26953 -1.584,-3.90999 -3.26565,-4.13808 -5.22265,-5.70507 -1.957,-1.567 -4.16986,-3.23865 -6.50586,-3.68165 -2.334,-0.44399 -4.32774,1.17618 -7.30274,1.57618 -2.97499,0.4 -7.52755,1.5515 -10.43554,0.8125 -2.906,-0.74 -3.45946,-3.09363 -5.18946,-4.64063 -0.428,-2.148 -1.16259,-4.20747 -1.55859,-6.85547 -0.398,-2.64999 -0.0781,-5.71634 -0.82813,-9.02734 -0.74799,-3.311 -2.24804,-6.88804 -3.37304,-10.33203 2.082,1.177 3.30106,1.2003 6.91406,3.52929 8.65899,5.58 16.92757,13.38185 27.72656,14.58985 6.988,0.784 10.75742,5.79248 17.06641,6.89648 6.30999,1.105 15.38136,1.07889 21.19336,0.96289 5.81199,-0.116 9.64053,-0.54105 13.26953,-2.49804 7.15699,-3.859 8.48245,-12.4576 5.93945,-14.6836 -2.54499,-2.22599 -3.57976,-1.74636 -5.50976,-1.19336 -4.84,1.388 -7.19574,-3.0015 -8.42774,-6.9375 -0.867,-2.77299 -0.97486,-5.92659 -1.63086,-9.30859 16.75799,-3.209 31.49388,-9.07548 44.25586,-21.23047 12.93999,-12.32299 28.14076,-37.46119 32.71875,-53.82617 5.80899,-20.76698 4.47882,-52.40872 -0.32617,-73.4707 -3.759,-16.492987 -9.43351,-27.838514 -19.8125,-41.062501 C 309.67276,63.26602 298.40957,52.116518 286.72158,45.504525 275.08859,38.921531 257.89182,33.02068 244.62783,31.664681 228.07985,29.971683 208.82334,29.79 193.14736,36.109994 c -6.10099,2.458997 -12.67922,7.32583 -17.32422,10.048828 -5.63899,3.304996 -12.18002,9.007968 -19.16601,8.417968 -3.061,-0.258999 -6.49999,-1.591189 -8.95899,-3.617187 0.951,7.151993 1.6508,10.81188 7.2168,16.296875 8.74599,8.618991 28.67409,6.110608 39.83008,5.349609 9.21699,-0.627999 16.81226,-3.975765 26.78125,-3.759765 8.13599,0.177999 21.0433,5.249065 26.52929,8.039062 9.77499,4.971995 19.17012,14.636107 24.91211,23.871086 3.528,5.674 6.7855,12.51754 8.6875,19.39454 1.902,6.87699 2.57641,14.88538 2.56641,21.48437 -0.01,6.59799 -1.21277,11.85266 -2.13477,17.84766 -1.627,10.57999 -12.70856,29.65366 -27.43554,25.13867 -13.48799,-4.137 -22.93781,-17.37065 -30.9668,-28.43164 -10.31099,-14.20299 -23.07064,-32.89914 -38.51563,-46.32813 -8.67399,-7.54199 -23.21124,-14.127997 -34.74023,-15.249997 -20.05898,-1.95199 -28.8281,1.37205 -45.70508,13.707027 -4.719,3.449 -7.913648,7.9691 -13.056638,10.9961 -10.06199,-5.758 -17.73095,-15.17702 -30.21094,-20.291017 -12.47999,-5.11499 -16.43422,-5.64117 -31.9082,-5.45117 -15.47399,0.19 -29.8051397,3.84375 -44.32813,15.677737 -14.52198,11.83398 -57.08098,64.51903 -65.41797,69.95703 -8.33599,5.43699 -10.46138,8.19415 -19.984372,8.03515 -9.52399,-0.159 -26.39572,-14.78374 -27.51172,-34.38672 -1.116,-19.60198 -0.6575,-27.86525 12.77148,-51.24023 13.42899,-23.37497 40.995052,-31.036609 57.832032,-33.849606 16.83699,-2.812998 28.07059,4.74853 46.35157,4.269531 18.2799804,-0.48 38.71236,-2.45132 37.81836,-25.154297 -3.349,2.565997 -8.0387,4.371547 -14.92969,4.310547 -6.8899896,-0.061 -17.6996796,-8.544163 -29.51367,-15.285156 -11.81499,-6.740994 -25.74823,-8.273954 -46.65821,-8.626954 z" />
        <g
           id="Layer_1"
           transform="translate(-192.76368,27.280356)"
           style="display:inline;stroke:#000000;stroke-width:1;stroke-dasharray:none;stroke-opacity:1"
           inkscape:label="Layer_1">
          <g
             id="g2490"
             style="stroke:#000000;stroke-width:1;stroke-dasharray:none;stroke-opacity:1">
            <path
               id="path2492"
               d="m 112.993,304.372 c -3.634,0.247 -8.365,1.875 -11.539,7.564 -2.591,4.646 -8.661,5.387 -11.495,4.451 -4.721,-1.56 -10.755,-2.642 -16.6,1.523 -5.845,4.164 -12.157,1.015 -11.05,-6.576 1.107,-7.59 3.849,-14.351 11.127,-18.538 15.895,-9.144 4.848,-15.508 13.572,-24.685 8.741,-9.195 6.81,-12.009 6.52,-24.497 C 63.985,239.176 47.241,230.661 28.544,207.301 9.847,183.94 2.599,164.711 0.661,135.423 -1.277,106.135 0.403,87.154 13.057,62.843 25.711,38.532 39.034,26.829 62.122,14.69 85.21,2.553 107.832,-0.354 128.742,0 c 20.91,0.353 34.843,1.885 46.658,8.626 11.814,6.741 22.622,15.224 29.512,15.285 6.891,0.061 11.582,-1.744 14.931,-4.31 0.894,22.703 -19.539,24.675 -37.819,25.155 -18.281,0.479 -29.514,-7.083 -46.351,-4.27 -16.837,2.813 -44.404,10.475 -57.833,33.85 -13.429,23.375 -13.887,31.638 -12.771,51.24 1.116,19.603 17.988,34.228 27.512,34.387 9.523,0.159 11.649,-2.599 19.985,-8.036 8.337,-5.438 50.896,-58.122 65.418,-69.956 14.523,-11.834 28.854,-15.488 44.328,-15.678 15.474,-0.19 19.428,0.335 31.908,5.45 12.48,5.114 20.149,14.533 30.211,20.291 5.143,-3.027 8.338,-7.547 13.057,-10.996 16.877,-12.335 25.646,-15.659 45.705,-13.707 11.529,1.122 26.066,7.708 34.74,15.25 15.445,13.429 28.205,32.125 38.516,46.328 8.029,11.061 17.477,24.295 30.965,28.432 14.727,4.515 25.809,-14.559 27.436,-25.139 0.922,-5.995 2.125,-11.249 2.135,-17.847 0.01,-6.599 -0.664,-14.607 -2.566,-21.484 -1.902,-6.877 -5.16,-13.72 -8.688,-19.394 -5.742,-9.235 -15.137,-18.899 -24.912,-23.871 -5.486,-2.79 -18.393,-7.863 -26.529,-8.041 -9.969,-0.216 -17.564,3.133 -26.781,3.761 -11.156,0.761 -31.084,3.269 -39.83,-5.35 -5.566,-5.485 -6.266,-9.144 -7.217,-16.296 2.459,2.026 5.898,3.358 8.959,3.617 6.986,0.59 13.527,-5.114 19.166,-8.419 4.645,-2.723 11.223,-7.589 17.324,-10.048 15.676,-6.32 34.932,-6.138 51.48,-4.445 13.264,1.356 30.461,7.257 42.094,13.84 11.688,6.612 22.951,17.761 31.201,28.271 10.379,13.224 16.053,24.57 19.812,41.063 4.805,21.062 6.137,52.702 0.328,73.469 -4.578,16.365 -19.779,41.504 -32.719,53.827 -12.762,12.155 -27.498,18.022 -44.256,21.231 0.656,3.382 0.764,6.536 1.631,9.309 1.232,3.936 3.588,8.324 8.428,6.936 1.93,-0.553 2.963,-1.032 5.508,1.194 2.543,2.226 1.219,10.825 -5.938,14.684 -3.629,1.957 -7.459,2.382 -13.271,2.498 -5.812,0.116 -14.883,0.141 -21.193,-0.964 -6.309,-1.104 -10.078,-6.111 -17.066,-6.895 -10.799,-1.208 -19.068,-9.01 -27.727,-14.59 -3.613,-2.329 -4.832,-2.353 -6.914,-3.53 1.125,3.444 2.625,7.021 3.373,10.332 0.75,3.311 0.43,6.378 0.828,9.028 0.396,2.648 1.131,4.707 1.559,6.855 1.73,1.547 2.283,3.9 5.189,4.64 2.908,0.739 7.461,-0.412 10.436,-0.812 2.975,-0.4 4.969,-2.021 7.303,-1.577 2.336,0.443 4.549,2.115 6.506,3.682 1.957,1.567 3.639,1.796 5.223,5.706 1.584,3.91 3.037,11.917 3.254,17.269 0.217,5.352 -0.383,10.183 -1.969,14.43 -1.586,4.247 -2.98,6.13 -7.275,10.336 -4.295,4.207 -11.289,10.38 -18.268,14.68 1.285,1.903 1.855,3.645 3.859,5.71 2.004,2.066 6.182,4.381 8.041,6.56 1.857,2.179 2.799,3.742 2.826,6.186 0.029,2.443 -0.09,5.619 -2.074,8.283 -4.941,6.633 -10.785,7.821 -17.891,10.941 1.195,7.462 2.17,12.793 0.443,20.244 -0.705,3.036 -2.271,9.92 -6.016,11.686 -3.746,1.766 -10.969,0.911 -15.541,1.637 -4.572,0.727 -7.131,1.417 -10.695,2.125 -2.166,3.131 -5.391,6.586 -6.496,9.392 -1.107,2.807 -0.773,3.813 0.156,6.679 0.929,2.866 4.092,7.039 4.988,10.395 0.896,3.356 1.07,6.969 0.234,10.334 -0.838,3.365 -2.271,5.807 -5.139,8.795 -2.867,2.989 -8.508,5.336 -11.318,7.758 -2.812,2.423 -5.611,2.714 -4.844,6.723 1.055,5.506 9.1,14.436 14.92,16.562 3.488,1.275 8.17,0.873 12.406,-0.915 -0.287,4.703 -4.357,7.873 -7.016,10.996 7.201,-2.059 14.184,-6.001 19.014,-11.226 -1.498,4.538 -6.652,11.823 -14.361,18.22 -7.709,6.397 -7.662,5.088 -11.494,7.633 6.992,1.405 13.494,1.025 18.91,0.052 -2.969,1.637 -7.836,3.939 -14.283,4.616 -6.447,0.676 -10.422,0.198 -16.232,-1.213 -5.811,-1.412 -11.115,-6.694 -18.156,-10.335 0.686,2.612 1.174,5.753 4.135,8.439 2.961,2.686 7.441,4.052 12.203,6.375 -6.062,-0.688 -12.432,-0.896 -18.389,-2.209 -4.41,-0.973 -7.373,-2.005 -10.6,-3.603 -3.225,-1.598 -5.715,-3.929 -8.572,-5.893 1.369,2.615 1.775,5.691 4.105,7.847 2.33,2.156 6.117,2.959 9.18,4.44 -3.195,-0.07 -6.268,0.623 -9.58,-0.21 -3.314,-0.833 -6.422,-2.142 -9.867,-4.68 -3.445,-2.538 -6.998,-5.663 -9.938,-8.858 -2.938,-3.195 -6.566,-7.337 -7.664,-10.283 -1.1,-2.947 0.66,-5.008 0.99,-7.509 -2.029,1.333 -4.525,2.067 -6.084,4.002 -1.559,1.935 -2.941,3.702 -2.251,7.075 0.691,3.373 3.804,7.496 6.005,11.248 -6.568,-5.371 -10.236,-7.439 -11.799,-13.918 -1.463,-6.066 2.322,-11.572 5.199,-16.159 1.429,-2.278 3.567,-4.398 4.903,-6.597 -2.967,-2.903 -6.358,-5.398 -8.901,-8.709 -2.542,-3.31 -3.61,-7.79 -6.205,-10.957 -2.596,-3.168 -6.088,-5.173 -9.129,-7.756 2.673,5.742 7.066,12.785 8.02,17.229 0.953,4.444 -1.069,7.164 -2.646,9.563 -1.578,2.399 -4.124,2.934 -6.539,4.408 -2.415,1.475 -6.171,0.312 -7.61,2.501 -1.438,2.188 -1.824,5.48 -0.449,7.648 l 5.64,8.902 c -2.078,-1.049 -5.658,-4.1 -7.272,-6.264 -1.614,-2.164 -4.09,-4.163 -4.429,-7.089 -0.339,-2.925 -0.504,-5.464 1.391,-8.07 1.896,-2.605 7.086,-3.477 9.409,-5.48 2.323,-2.003 3.626,-3.307 3.493,-5.896 -0.132,-2.589 -2.661,-4.441 -4.835,-6.073 -6.637,-4.978 -15.151,-9.565 -20.787,-15.565 -3.184,-3.39 -4.712,-6.127 -5.352,-8.466 -0.639,-2.338 0.037,-4.162 1.619,-7.038 1.582,-2.877 7.007,-6.718 7.667,-9.843 0.659,-3.124 -2.081,-3.795 -4.554,-4.897 -2.473,-1.102 -7.17,0.565 -9.464,-1.352 -2.293,-1.917 0.674,-5.945 -1.911,-8.154 -2.584,-2.209 -8.499,-0.976 -11.552,-3.352 -3.053,-2.377 -4.315,-5.327 -5.367,-8.775 -1.052,-3.448 -1.171,-7.225 -0.458,-9.722 0.713,-2.497 2.855,-2.934 4.147,-4.228 1.292,-1.294 2.413,-2.367 0.691,-4.297 -1.722,-1.929 -7.365,0.108 -10.609,-2.369 -3.244,-2.477 -1.258,-8.41 -3.552,-10.911 -2.293,-2.501 -6.409,-1.522 -8.581,-2.321 -2.171,-0.799 -3.023,2.02 -4.355,-2.438 -1.332,-4.459 -1.368,-17.75 -3.16,-22.71 -1.792,-4.96 -5.311,-0.335 -6.945,-5.265 -1.634,-4.929 -0.085,-12.812 -0.821,-20.257 l -3.335,-20.257 c -11.634,7.815 -19.314,10.269 -31.813,12.477 -1.043,30.582 -3.916,48.591 6.464,82.52 10.38,33.928 31.387,53.924 59.726,82.649 -37.395,-28.016 -55.248,-50.792 -66.422,-79.97 -11.176,-29.182 -9.03,-53.586 -7.906,-81.686 z M 311.701,292.08 c 2.877,0.129 6.373,0.859 8.393,2.171 2.021,1.312 4.166,2.384 6,4.251 4.576,4.66 8.008,10.28 9.525,16.738 0.967,4.117 1.111,9.397 1.463,14.231 -1.385,-4.468 -2.316,-9.127 -4.289,-13.13 -3.111,-6.312 -8.396,-12.473 -14.959,-15.31 -2.166,-0.938 -3.611,-0.764 -4.803,-0.598 0.533,0.895 1.426,1.645 1.465,2.956 0.039,1.311 -0.254,3.876 -2.477,4.954 -3.584,1.739 -7.568,0.516 -10.336,-1.931 -2.791,-2.466 -3.742,-6.638 -2.281,-10.223 1.741,-4.272 8.375,-4.283 12.299,-4.109 z M 275.629,286 c 0.361,-7.345 3.012,-13.539 9.594,-17.141 3.404,-1.862 8.648,-4.27 13.467,-4.836 4.629,-0.543 15.889,-0.146 22.662,2.945 5.201,2.374 8.744,6.07 13.311,8.771 4.566,2.702 7.814,4.513 12.162,7.543 6.674,4.651 10.586,9.772 15.213,12.842 2.225,1.475 5.355,1.256 8.309,2.158 -2.297,0.682 -5.299,1.434 -7.777,0.642 -3.09,-0.988 -7.41,-3.813 -9.807,-5.838 -4.236,-3.578 -6.432,-5.324 -11.055,-8.023 -2.76,-1.608 -7.305,-3.503 -10.338,-5.481 -3.035,-1.978 -8.303,-6.318 -11.219,-7.787 -3.707,-1.866 -10.381,-2.904 -14.508,-2.783 -5.686,0.166 -13.916,1.104 -18.316,5.096 -4.371,3.968 -6.031,7.459 -5.045,12.612 1.646,-1.896 2.742,-4.278 4.391,-5.688 3.416,-2.918 7.336,-3.059 11.588,-2.506 4.777,0.622 7.182,3.381 8.76,7.916 -1.062,-0.78 -3.014,-2.493 -4.555,-3.024 -3.617,-1.248 -6.352,-0.864 -9.74,0.953 -4,2.146 -2.912,5.322 -3.488,8.854 -0.264,1.629 -0.879,2.941 -1.318,4.412 -1.504,-0.398 -2.895,-1.024 -4.033,-2.152 0.047,1.65 -0.193,3.093 0.145,4.949 0.336,1.855 1.24,4.059 1.859,6.088 -2.785,-2.786 -5.635,-5.38 -7.434,-8.977 -1.801,-3.599 -3.021,-7.593 -2.828,-11.545 z m 4.82,-53.46 c 2.053,-3.047 2.654,-7.721 3.92,-11.521 -0.506,4.813 0.467,10.106 -1.883,13.592 -2.35,3.486 -6.477,2.875 -9.896,3.889 2.66,-2.028 5.805,-2.913 7.859,-5.96 z m -49.151,71.368 c 2.636,-2.134 9.75,-0.428 15.071,-0.047 -3.824,0.979 -7.648,1.959 -11.472,2.938 -0.356,1.301 -0.195,2.792 -1.068,3.901 -0.874,1.11 -2.534,1.521 -3.8,2.28 0.125,-3.418 -1.367,-6.939 1.269,-9.072 z m 37.491,-148.22 c 3.176,1.71 7.207,3.971 10.012,4.041 2.805,0.07 3.539,-1.834 5.189,-2.933 2.596,8.465 5.576,17.766 9.996,25.447 1.852,3.218 3.033,1.722 4.441,4.956 1.406,3.233 2.031,9.812 3.365,13.943 1.336,4.131 3.078,7.171 4.617,10.756 -3.908,-5.537 -8.957,-12.597 -11.135,-17.205 -2.176,-4.607 -0.783,-5.008 -2.545,-9.396 -1.762,-4.388 -5.324,-11.228 -7.986,-16.842 -1.906,0.253 -4.266,0.6 -5.715,0.153 -1.449,-0.447 -1.16,-1.988 -2.469,-2.984 -1.311,-0.996 -3.514,-0.61 -5.35,-2.2 -1.836,-1.589 -2.254,-4.85 -2.42,-7.736 z m -17.101,41.769 c 2.989,-0.262 6.701,0.539 9.5,0.38 2.799,-0.159 4.797,-0.885 7.196,-1.328 -0.445,-4.216 -0.023,-11.962 -3.915,-14.777 -2.514,-1.818 -12.839,-0.449 -15.597,0.146 -6.206,1.338 -13.433,5.042 -19.435,7.358 5.752,-4.018 10.721,-7.742 17.62,-9.816 4.147,-1.247 13.825,-2.868 18.105,-1.712 1.954,0.527 2.349,1.336 3.534,2.992 4.074,5.688 4.062,10.604 5.119,17.23 1.039,1.619 2.146,2.699 2.988,4.369 0.84,1.67 1.316,4.298 1.551,6.446 -1.066,-1.546 -0.414,-3.485 -3.367,-4.636 -2.955,-1.151 -7.479,-0.076 -11.46,0.34 2.902,2.094 4.344,4.111 4.455,8.538 0.13,5.198 -4.271,8.939 -8.866,9.295 -6.379,0.495 -9.668,-0.906 -12.248,-6.358 -1.13,-2.388 -0.311,-5.261 -0.405,-7.589 -7.665,0.533 -7.54,0.283 -13.142,4.954 3.045,4.461 4.963,7.026 9.995,9.695 2.822,1.498 6.017,2.954 9.514,3.549 3.498,0.595 9.235,1.17 12.909,0.606 3.675,-0.564 5.757,-1.613 8.481,-4.132 2.725,-2.52 2.975,-6.128 4.039,-8.98 -0.242,2.745 -0.557,6.241 -1.576,8.232 -3.1,6.053 -8.461,7.847 -14.862,7.867 -6.144,0.02 -13.744,-1.397 -19.46,-3.767 -4.57,-1.894 -12.146,-7.258 -13.944,-11.918 -1.229,-3.184 -0.256,-7.091 -0.385,-10.637 6.328,-4.208 7.894,-3.173 15.381,-4.405 3.132,-0.516 5.286,-1.679 8.275,-1.942 z m -36.861,-28.501 c 0.178,-2.521 0.457,-2.467 0.686,-3.701 -5.765,-1.542 -8.077,2.198 -11.457,9.144 -1.265,2.599 -0.013,4.146 -1.37,5.857 -1.355,1.711 -3.539,1.471 -5.74,3.114 -2.201,1.642 -4.382,4.787 -6.44,6.488 -4.223,3.491 -9.931,5.622 -14.829,7.971 3.345,-2.468 9.836,-6.211 11.936,-9.797 1.114,-1.901 0.949,-5.486 2.683,-7.195 1.733,-1.71 2.34,-2.893 4.578,-3.329 2.238,-0.436 1.338,-3.03 2.06,-5.092 0.722,-2.062 2.16,-3.526 3.69,-5.586 1.53,-2.06 3.46,-5.153 6.481,-6.276 3.021,-1.124 7.732,0.091 10.019,-0.556 2.286,-0.647 0.973,-2.309 2.634,-3.307 1.663,-0.998 4.896,-0.558 7.117,-1.625 3.937,-1.893 5.82,-5.053 8.188,-8.436 0.344,7.282 0.26,12.525 -2.357,19.376 -2.947,7.711 -5.934,12.253 -14.298,16.995 -2.882,1.633 -5.75,2.2 -8.139,3.057 1.393,-1.9 3.387,-2.725 4.18,-5.7 0.791,-2.977 0.2,-8.88 0.378,-11.402 z m 135.038,35.507 c -3.977,0.259 -4.92,-0.264 -8.102,1.98 1.725,2.684 3.449,5.368 5.172,8.052 -0.152,-5.298 0.364,-6.36 2.93,-10.032 z m -10.42,-3.85 c 5.508,-2.346 10.307,-4.244 16.299,-4.619 2.402,-0.151 6.131,0.221 8.557,0.331 2.066,-3.042 4.699,-5.441 5.664,-8.913 0.639,-2.303 0.324,-12.992 -0.807,-15.767 -3.295,-8.076 -6.498,-8.417 -11.033,-13.043 -3.291,-3.355 -3.422,-8.464 -4.406,-14.189 -0.361,-2.103 -1.393,-4.764 -1.877,-6.934 -5.928,-0.999 -12.303,-1.328 -19.123,-0.987 3.307,-3.172 6.504,-6.07 7.453,-10.832 0.947,-4.762 0.176,-10.617 -2.531,-14.887 -2.707,-4.27 -7.031,-7.99 -11,-11.469 -3.971,-3.479 -9.662,-6.351 -13.424,-9.197 4.893,-1.752 9.889,-4.326 14.682,-5.255 12.486,-2.422 23.244,1.282 35.287,8.563 7.002,4.235 12.793,8.258 20.113,15.921 7.318,7.662 16.395,21.717 23.48,30.052 7.085,8.335 12.805,14.927 18.986,19.898 6.182,4.972 11.777,6.388 17.664,9.581 l 9.176,9.744 7.426,-9.189 11.949,1.351 2.469,-13.412 10.967,-3.005 -1.789,-18.08 7.885,-5.596 -5.926,-11.249 6.021,-12.292 -7.85,-14.051 3.027,-13.529 -9.088,-7.745 -1.186,-14.377 -12.678,-4.836 -5.086,-12.508 -14.254,-0.16 -6.992,-9.285 -9.596,0.672 -10.697,-1.165 -6.049,-4.466 -8.779,5.828 -10.623,-5.539 -21.117,8.017 13.766,-11.972 14.262,-2.278 10.926,-2.785 14.756,4.846 12.988,-3.29 12.523,7.403 13.252,-0.733 6.51,11.681 13.195,1.523 7.139,12.987 8.299,4.531 2.203,16.637 7.391,7.01 -3.25,14.557 8.707,11.024 -8.164,11.812 8.73,7.383 -11.16,9.891 11.303,11.771 -13.65,4.402 8.891,12.625 -11.15,1.924 7.312,13.882 -12.566,-0.167 6.33,10.398 -13.783,-1.659 3.297,14.959 -10.416,-9.163 -3.568,18.13 -7.188,-13.018 -3.893,16.237 -8.873,-11.973 0.242,17.026 -9.807,-15.309 c 2.068,8.686 1.654,18.197 7.359,26.386 17.676,-2.392 29.229,-6.846 42.771,-19.877 12.334,-11.868 27.076,-36.613 31.068,-52.308 4.555,-17.91 4.695,-50.85 0.209,-69.084 C 522.282,71.848 516.67,63.462 506.643,49.136 497.059,38.957 487.633,28.204 475.469,20.945 457.613,10.29 434.717,7.417 414.367,7.694 c -11.268,0.154 -18.816,2.318 -25.553,4.768 -11.781,4.284 -21.203,13.629 -33.18,18.247 -3.906,1.505 -7.037,1.552 -10.113,-0.091 3.012,6.026 6.289,8.729 13.801,10.922 5.434,1.586 18.4,0.583 27.326,-0.241 9.582,-0.885 14.58,-3.734 27.621,-3.555 12.736,0.175 22.828,5.013 28.346,8.168 11.385,6.51 19.549,13.732 26.643,25.172 3.896,6.282 6.625,13.37 8.547,20.603 1.922,7.233 2.764,15.334 2.887,22.415 0.123,7.081 -0.418,13.402 -2.15,19.774 -4.051,14.918 -12.988,30.098 -31.346,27.753 -11.234,-1.436 -28.17,-22.522 -33.842,-30.258 C 401.909,115.758 390.133,98.481 375.752,85.479 366.984,77.554 354.979,72.1 343.19,71.021 c -22.117,-2.024 -28.676,2.177 -45.324,15.899 3.387,1.08 6.693,1.676 10.164,3.24 7.703,3.471 14.748,7.957 20.893,13.711 6.439,6.031 9.328,9.848 9.557,18.484 0.152,5.735 -4.566,10.333 -8.891,14.469 -2.646,2.533 -6.148,4.852 -8.291,6.818 -2.84,2.609 -6.357,5.463 -2.789,9.619 1.342,1.562 3.672,2.74 5.637,4.199 3.119,2.315 1.691,10.919 -2.418,13.201 -5.258,2.917 -11.541,2.591 -15.877,-1.314 5.473,-0.819 8.949,-1.545 8.807,-6.022 -0.082,-2.595 -3.381,-4.751 -6.619,-6.227 -7.809,-3.56 -13.707,-3.035 -21.479,-8.627 -7.85,-5.651 -8.023,-8.745 -10.145,-17.617 -3.785,0.396 -7.27,0.483 -12.331,2.159 -5.061,1.675 -10.654,5.663 -15.249,6.65 -11.572,2.49 -13.878,1.752 -20.211,0.113 -11.15,-2.886 -25.668,2.055 -40.09,6.668 -2.398,0.767 -12.097,0.026 -18.626,2.317 -10.084,3.538 -24.233,12.106 -32.405,18.988 -12.382,10.429 -28.654,41.64 -37.848,77.464 -0.966,10.89 2.131,18.227 -4.729,23.546 -6.86,5.319 -6.67,18.946 -8.996,22.768 -2.326,3.821 -5.019,2.132 -10.026,7.499 -5.007,5.367 -7.556,4.47 -7.43,14.618 4.315,-2.837 10.606,-6.135 16.13,-6.334 4.892,-0.177 4.944,6.264 17.5,-6.149 6.715,-6.641 19.616,-6.844 28.567,-9.773 8.952,-2.929 25.083,-8.965 41.239,-27.027 16.156,-18.062 23.887,-37.077 27.02,-64.567 0.499,4.874 1.365,10.371 -0.722,23.816 -2.087,13.445 -6.585,28.546 2.891,46.634 l 5.904,11.269 c -3.515,-4.797 -10.381,-12.622 -12.448,-18.198 l -4.768,-12.863 c -10.667,16.748 -13.119,19.744 -27.937,31.743 -0.59,7.444 -0.735,15.208 1.698,22.331 2.433,7.122 -1.445,15.332 0.406,20.023 1.851,4.691 6.132,2.021 7.53,6.77 1.398,4.749 -0.73,14.138 1.438,18.767 2.168,4.629 7.487,1.82 10.065,3.315 2.578,1.496 3.421,3.546 4.8,5.513 1.378,1.966 -0.539,6.614 2.265,8.123 2.803,1.51 7.176,0.231 10.093,1.68 2.917,1.449 3.36,4.932 2.661,8.053 -0.7,3.121 -3.817,4.553 -5.186,7.726 -1.368,3.174 -1.215,5.383 0.429,8.297 1.644,2.915 5.284,4.52 8.912,5.991 3.628,1.471 8.726,0.645 12.47,2.679 3.744,2.034 7.109,6.087 9.086,9.033 1.977,2.945 2.526,5.023 2.425,8.12 -0.102,3.096 -1.358,6.663 -3.011,9.654 -1.653,2.991 -5.3,6.631 0.394,12.343 5.694,5.711 5.484,3.249 8.746,6.954 -0.355,-6.409 -3.003,-11.63 -1.067,-16.455 1.937,-4.825 7.752,-5.664 10.817,-7.834 3.065,-2.171 4.83,-5.153 7.246,-7.729 -0.035,3.315 0.32,6.879 -0.057,9.375 -0.768,5.075 -2.266,9.58 5.297,10.394 3.407,0.366 6.642,-1.843 10.227,-3.169 -1.878,3.363 -5.144,6.067 -5.635,10.092 -0.491,4.023 0.099,8.443 2.885,12.436 2.787,3.991 7.599,6.955 11.125,9.301 3.525,2.347 5.414,2.535 8.123,3.804 0.133,3.956 -0.646,8.143 -0.195,11.869 0.451,3.726 1.625,7.024 3.779,10.104 2.156,3.081 5.613,4.848 8.869,7.126 -1.785,-4.157 -5.406,-8.101 -5.357,-12.471 0.049,-4.369 1.359,-7.466 5.621,-11.343 4.262,-3.878 14.24,-7.241 18.945,-11.011 4.705,-3.771 6.223,-6.081 7.912,-9.742 1.689,-3.661 1.219,-9.559 1.531,-12.85 1.549,4.61 1.77,6.043 2.273,10.866 0.506,4.824 -2.811,11.59 -4.215,15.161 5.82,-2.811 9.514,-7.304 11.379,-11.695 1.248,0.74 0.619,2.769 1.078,6.679 2.074,-2.064 4.432,-3.652 6.52,-5.6 2.09,-1.946 4.379,-3.658 5.416,-6.375 1.035,-2.717 0.611,-5.606 -0.16,-8.763 -0.771,-3.157 -4.299,-6.818 -6.199,-10.271 -1.898,-3.452 0.336,-6.841 0.207,-11.001 -3.801,-0.653 -7.029,-2.589 -11.398,-1.96 -4.371,0.628 -9.377,5.533 -13.844,5.59 -4.467,0.057 -6.975,-4.128 -10.637,-5.278 -3.662,-1.15 -7.367,-1.024 -11.049,-1.536 4.664,-4.468 22.766,-6.596 35.148,-8.615 10.895,-1.777 21.707,-2.804 32.746,-2.959 4.93,-0.07 11.266,1.558 14.689,0.574 3.426,-0.982 2.695,-3.315 3.711,-5.858 2.842,-7.108 1.441,-13.438 -0.105,-20.596 -9.91,-1.162 -20.236,-2.584 -30.221,-1.817 -9.762,0.75 -21.322,5.391 -31.391,5.705 -8.754,0.272 -21.717,-1.677 -29.234,-6.259 -9.186,-5.599 -16.293,-17.624 -18.816,-21.485 -4.109,-6.289 -9.292,-18.627 -12.446,-24.268 -3.152,-5.641 -3.847,-7.219 -6.47,-9.574 -2.623,-2.354 -6.216,-2.536 -9.323,-3.805 3.582,0.366 7.493,-0.768 10.747,1.098 4.889,2.805 10.361,14.431 13.403,19.49 3.223,-10.804 2.471,-15.052 11.797,-21.144 -7.516,8.424 -7.703,14.805 -9.535,24.723 6.25,10.258 14.939,26.598 26.309,31.132 4.107,1.639 11.16,2.667 15.6,3.216 13.818,1.711 27.146,-2.668 40.717,-6.019 9.92,-2.45 19.986,-1.463 32.051,-0.754 4.096,0.24 13.754,-2.224 15.754,-6.367 1.08,-2.235 1,-4.921 -0.551,-7.303 -1.553,-2.382 -5.689,-3.534 -7.906,-5.678 -2.217,-2.144 -3.492,-4.689 -5.238,-7.034 -9.215,1.768 -16.795,2.447 -23.635,2.633 4.906,-2.021 9.613,-3.174 14.719,-5.171 5.106,-1.997 10.904,-5.275 15.025,-7.995 4.121,-2.721 6.752,-4.299 9.734,-7.465 2.98,-3.168 6.803,-6.431 9,-10.303 2.199,-3.872 2.539,-8.203 2.662,-12.995 0.123,-4.791 -0.084,-11.514 -1.932,-15.374 -1.846,-3.859 -5.406,-5.03 -8.266,-5.943 -2.861,-0.913 -4.82,1.396 -7.795,1.708 -2.977,0.312 -5.758,2.188 -10.062,0.164 -4.304,-2.024 -9.406,-6.144 -13.758,-12.259 -4.35,-6.116 -7.461,-16.112 -11.896,-23.802 -7.645,-13.256 -17.172,-25.639 -26.283,-37.922 -0.75,-3.029 -1.877,-7.215 -2.252,-11.324 -0.654,-7.16 -0.777,-14.598 1.445,-21.578 1.703,-5.347 4.18,-10.995 9.779,-13.188 2.24,-0.878 5.074,-1.226 7.076,-0.484 2.004,0.741 3.969,3.002 3.182,5.614 -0.865,2.872 -2.855,2.95 -4.207,4.4 -2.295,2.46 -3.213,4.265 -4.08,7.332 2.48,-0.04 5.832,-0.229 7.869,0.307 2.658,0.7 5.133,2.462 6.482,6.228 -3.172,-2.813 -4.748,-4.104 -8.707,-4.204 -1.814,-0.045 -4.018,0.604 -6.025,0.906 -0.75,2.44 -1.191,5.432 -2.25,7.32 -1.059,1.888 -3.121,1.435 -3.895,3.641 -0.774,2.202 -0.819,5.788 -0.429,8.683 z m 27.715,-3.307 c 1.215,0.479 1.678,0.584 3.217,1.755 1.539,1.171 3.662,2.34 4.881,5.138 1.221,2.799 1.164,7.127 0.904,8.89 -1.07,-0.314 -2.529,-0.102 -3.639,-1.051 -1.107,-0.949 -1.768,-3.098 -3.188,-4.018 -1.422,-0.919 -2.607,-0.718 -4.178,-0.917 0.807,2.296 1.199,4.593 0.824,6.675 -0.814,4.545 -3.486,6.847 -7.812,7.391 -1.889,0.237 -4.889,-0.385 -6.533,-0.684 0.762,1.702 2.053,3.193 2.816,4.895 3.658,-0.529 6.369,-0.454 8.336,-1.374 1.967,-0.92 4.076,-2.981 6.6,-3.854 2.525,-0.873 4.777,-0.859 7.539,-1.29 -2.176,1.875 -3.604,3.751 -5.777,5.626 1.594,4.633 3.188,9.265 4.781,13.897 3.379,2.114 6.549,3.228 10.807,5.838 4.26,2.611 9.367,7.281 14.914,9.828 5.547,2.547 8.85,3.933 14.646,5.026 5.795,1.093 10.406,5.787 16.109,6.55 5.703,0.763 16.355,0.917 20.75,0.488 4.99,-0.487 11.473,-3.062 12.055,-8.533 -4.184,1.032 -10.574,0.106 -13.801,-7.767 -1.432,-3.496 -0.73,-9.925 -2.922,-14.059 -2.191,-4.135 -5.246,-5.462 -8.896,-10.556 -3.65,-5.094 -9.621,-13.129 -12.973,-19.954 -3.35,-6.824 -4.139,-14.554 -6.973,-20.669 -2.834,-6.114 -7.109,-11.053 -10.422,-15.766 -7.234,-10.3 -13.068,-17.339 -24.986,-22.535 -5.732,-2.499 -12.258,-3.165 -18.387,-4.748 -2.494,1.117 -5.914,2.351 -6.521,5.268 -0.607,2.917 0.559,7.225 2.676,9.415 3.543,3.661 8.793,7.618 10.857,13.437 1.326,3.734 1.711,16.252 0.562,19.649 -1.192,3.527 -3.963,5.66 -6.266,8.009 z m 1.154,29.629 c -1.107,0.955 -1.951,1.936 -3.732,2.729 -1.779,0.793 -4.209,0.998 -6.57,1.588 3.311,5.154 6.789,10.362 9.961,15.781 3.174,5.418 5.924,11.351 8.953,17.025 -0.143,-3.252 0.049,-6.719 -0.424,-9.758 -0.473,-3.038 -1.85,-5.697 -3.215,-10.258 -1.363,-4.561 -3.041,-10.766 -4.973,-17.107 z M 279.229,113.611 c -0.467,5.07 0.391,12.996 1.441,17.96 1.258,5.942 2.469,9.023 7.291,12.603 8.83,6.555 14.467,5.45 21.26,9.251 3.232,1.809 7.328,4.841 8.523,8.046 1.195,3.205 -0.789,6.685 -3.24,8.053 4.287,0.638 9.094,-4.195 7.088,-9.157 -0.988,-2.442 -5.691,-3.53 -7.133,-5.994 -1.439,-2.463 -1.436,-4.999 -0.758,-7.501 1.225,-4.51 10.148,-8.608 13.301,-12.173 4.852,-5.486 6.715,-10.075 3.967,-17.14 -3.859,-9.925 -18.768,-17.889 -27.691,-21.784 -4.086,-1.783 -6.377,-1.91 -9.564,-2.865 6.525,3.824 13.404,6.87 16.705,15.418 2.756,7.139 0.369,9.829 0.461,16.045 0.043,2.882 3.838,4.323 5.523,6.144 1.467,1.583 1.348,2.758 0.176,4.943 -0.129,-1.971 -0.971,-3.442 -2.484,-4.513 -2.498,-1.771 -5.189,-1.39 -6.52,-5.021 -2.02,-5.52 1.986,-10.748 -2.518,-16.946 -3.369,-4.637 -7.85,-9.827 -13.895,-9.963 -2.861,-0.065 -5.012,0.367 -8.068,1.271 l -4.074,-4.903 -0.094,-0.064 C 270.639,87.758 264.969,81.525 253.344,76.327 241.719,71.13 235.99,70.343 222.661,70.639 c -13.329,0.295 -26.557,1.41 -41.995,14.723 -15.437,13.313 -55.224,64.292 -64.873,70.744 -9.648,6.452 -11.785,8.638 -23.841,8.641 C 79.896,164.75 61.08,147.697 60.343,126.385 59.605,105.072 59.309,97.497 74.124,71.822 88.94,46.146 115.78,38.262 135.694,35.6 c 19.915,-2.662 31.882,4.352 46.613,4.385 14.73,0.034 29.288,-2.509 33.581,-14.224 -2.101,1.251 -4.916,2.661 -12.832,2.246 C 195.14,27.592 184.164,18.427 171.817,12.286 159.47,6.146 145.73,5.427 128.107,5.094 110.484,4.761 88.494,6.108 66.708,17.869 44.922,29.63 30.051,42.109 17.415,65.127 4.779,88.146 2.891,106.94 4.928,134.811 c 2.037,27.871 10.633,48.599 27.184,68.998 16.551,20.399 33.092,30.38 62.918,34.091 l 6.279,-27.696 -11.209,16.086 0.277,-17.891 -10.139,12.581 -4.447,-17.062 -8.214,13.679 -4.08,-19.05 -11.903,9.627 3.768,-15.719 -15.75,1.743 7.235,-10.926 -14.361,0.175 L 40.842,168.86 28.1,166.837 38.26,153.57 22.66,148.945 35.576,136.577 22.823,126.184 32.798,118.426 23.47,106.014 33.42,94.431 29.706,79.135 38.155,71.77 40.67,54.289 50.152,49.527 58.31,35.881 73.389,34.28 l 7.44,-12.274 15.145,0.771 14.312,-7.779 14.843,3.457 16.86,-5.092 12.487,2.926 16.296,2.395 15.733,12.58 -24.133,-8.424 -12.14,5.821 -10.035,-6.125 -6.909,4.693 -12.225,1.224 -10.963,-0.708 -7.992,9.756 -16.291,0.168 -5.811,13.143 -14.486,5.082 -1.355,15.107 -10.388,8.138 3.461,14.216 -8.971,14.765 6.882,12.915 -6.773,11.82 9.011,5.88 -2.044,18.998 12.532,3.158 2.823,14.093 13.656,-1.419 8.484,9.656 10.486,-10.239 c 19.116,-9.532 26.988,-14.864 41.886,-30.977 16.959,-18.343 26.679,-35.302 49.269,-47.861 16.202,-9.008 29.417,-12.25 47.617,-9.105 17.088,2.952 22.81,13.202 35.395,24 1.334,-2.415 1.605,-3.055 3.803,-4.833 -0.69,3.136 -1.786,6.389 -2.065,9.405 z"
               style="fill-rule:evenodd;stroke:#000000;stroke-width:1;stroke-dasharray:none;stroke-opacity:1" />
          </g>
        </g>
      </g>
    </g>
  </g>
</svg>
